<svg width="534" height="534" viewBox="0 0 534 534" fill="none" xmlns="http://www.w3.org/2000/svg">
<path d="M267 0.666679C120 0.666679 0.666626 120 0.666626 267C0.666626 414 120 533.333 267 533.333C414 533.333 533.333 414 533.333 267C533 120 414 0.666679 267 0.666679ZM235.667 229.667L316 257.667C345 268 359 288.333 359 319.667C359 355.667 330.333 385.333 295.333 385.333H292.333V387C292.333 400.667 281 412 267.333 412C253.667 412 242.333 400.667 242.333 387V385C205.333 383.333 175.667 352.333 175.667 313.667C175.667 300 187 288.667 200.667 288.667C214.333 288.667 225.667 300 225.667 313.667C225.667 325.667 234.333 335.333 245 335.333H295C302.667 335.333 308.667 328.333 308.667 319.667C308.667 308 306.667 307.333 299 304.667L218.667 276.667C190 266.667 175.667 246.333 175.667 214.667C175.667 178.667 204.333 149 239.333 149H242.333V147.667C242.333 134 253.667 122.667 267.333 122.667C281 122.667 292.333 134 292.333 147.667V149.667C329.333 151.333 359 182.333 359 221C359 234.667 347.667 246 334 246C320.333 246 309 234.667 309 221C309 209 300.333 199.333 289.667 199.333H239.667C232 199.333 226 206.333 226 215C225.667 226.333 227.667 227 235.667 229.667Z" fill="#F0F0F0"/>
</svg>
